<svg width="22" height="24" viewBox="0 0 22 24" fill="none" xmlns="http://www.w3.org/2000/svg">
<path d="M16.4049 6.95088C16.411 6.94699 16.416 6.94162 16.4194 6.9353C16.4228 6.92896 16.4245 6.92186 16.4243 6.9147C16.424 6.90754 16.4219 6.90056 16.4182 6.89444C16.4144 6.88831 16.4091 6.88325 16.4027 6.87973L11.0449 4.00861C11.0114 3.99036 10.9771 3.98929 10.9422 4.00535C10.8997 4.02504 10.8015 4.0765 10.6474 4.15968C8.15996 5.50164 5.89249 6.75568 3.8449 7.9218C3.79505 7.95026 3.76974 7.99295 3.769 8.04987L3.70537 12.1885C3.70537 12.2184 3.69198 12.2411 3.66516 12.2564L0.175164 14.231C0.159689 14.2397 0.142131 14.2443 0.124317 14.2443C0.106502 14.2443 0.0890083 14.2397 0.073597 14.2311C0.0582178 14.2224 0.0454659 14.21 0.0366548 14.195C0.0278118 14.18 0.0232301 14.163 0.0233262 14.1457C0.0158929 11.6836 0.0162454 9.21124 0.0244477 6.7287C0.0259215 6.39886 0.113391 6.12155 0.286824 5.89679C0.389512 5.76325 0.614305 5.59906 0.961139 5.40423C3.12035 4.18776 5.1482 3.06908 7.04465 2.04819C8.07066 1.49651 9.36572 0.733582 10.5246 0.129384C10.6958 0.0396053 10.8785 -0.00343058 11.0728 0.000213335C11.212 0.00238084 11.4821 0.114777 11.8833 0.337338C12.8025 0.847423 13.4054 1.1831 13.692 1.34438C17.2065 3.3234 19.8398 4.77958 21.5919 5.7129C21.8599 5.8552 21.9771 6.09821 21.986 6.4233C22.0039 7.13333 22.0046 7.54161 21.9883 7.64816C21.9533 7.88458 21.8018 8.07651 21.5339 8.2239C18.8857 9.67898 16.1999 11.1534 13.4765 12.6472C13.3023 12.7428 12.6551 13.104 11.535 13.7308C10.615 14.2464 9.48408 14.8287 8.53957 15.3727C8.26194 15.5325 7.29956 16.0707 5.65244 16.9873C5.64197 16.9929 5.63325 17.0013 5.62716 17.0114C5.62107 17.0215 5.61787 17.033 5.61787 17.0447C5.61787 17.0565 5.62107 17.068 5.62716 17.0781C5.63325 17.0882 5.64197 17.0965 5.65244 17.1022C7.43355 18.0815 9.11193 18.9944 10.6876 19.8409C10.8506 19.9292 11.0006 19.9554 11.1375 19.9197C11.1569 19.9146 11.2812 19.85 11.5104 19.7259C13.5059 18.6408 15.6833 17.4484 18.0427 16.1488C18.2504 16.0342 18.352 15.8679 18.3475 15.6497C18.3319 14.8696 18.3148 13.6651 18.2962 12.0364C18.2928 11.7551 18.3308 11.6642 18.5865 11.5187C19.761 10.8517 20.8417 10.2668 21.8286 9.76402C21.8621 9.74649 21.9041 9.7348 21.9548 9.72899C21.9594 9.72836 21.964 9.72874 21.9685 9.73009C21.9729 9.73147 21.977 9.73377 21.9806 9.73691C21.9841 9.74002 21.9868 9.74385 21.9887 9.74815C21.9907 9.75246 21.9916 9.75711 21.9916 9.76182C22.002 11.6131 21.9935 13.3441 21.9659 14.9546C21.9514 15.7865 21.9894 16.6841 21.9972 17.517C22.0002 17.8119 21.8781 18.0366 21.631 18.1913C20.8078 18.7065 19.8123 19.271 18.6445 19.8846C18.0089 20.2189 17.3591 20.5743 16.6952 20.9508C14.8196 22.0147 13.0466 23.0491 11.1074 23.9719C11.0654 23.9918 11.0192 24.0014 10.9727 23.9998C10.9262 23.9983 10.8809 23.9857 10.8406 23.9631C10.1595 23.5844 9.48184 23.2527 8.92809 22.9495C6.50689 21.6243 4.03916 20.2619 1.52495 18.8623C1.37311 18.7776 1.02551 18.5981 0.482172 18.3238C0.26635 18.215 0.131237 18.0195 0.0769293 17.7371C0.00621692 17.3744 -0.0157625 16.9902 0.011055 16.5845C0.0378405 16.1722 0.236937 15.8642 0.608345 15.6606C4.70197 13.4167 9.80823 10.609 15.9271 7.23769C16.0246 7.18369 16.1838 7.0881 16.4049 6.95088Z" fill="#424242"/>
</svg>
